<svg width="16" height="16" viewBox="0 0 16 16" fill="none" xmlns="http://www.w3.org/2000/svg">
<path fill-rule="evenodd" clip-rule="evenodd" d="M5 0H11C13.761 0 16 2.239 16 5V11C16 13.761 13.761 16 11 16H5C2.239 16 0 13.761 0 11V5C0 2.239 2.239 0 5 0ZM11 14.5C12.93 14.5 14.5 12.93 14.5 11V5C14.5 3.07 12.93 1.5 11 1.5H5C3.07 1.5 1.5 3.07 1.5 5V11C1.5 12.93 3.07 14.5 5 14.5H11ZM4 8C4 5.791 5.791 4 8 4C10.209 4 12 5.791 12 8C12 10.209 10.209 12 8 12C5.791 12 4 10.209 4 8ZM5.5 8C5.5 9.378 6.622 10.5 8 10.5C9.378 10.5 10.5 9.378 10.5 8C10.5 6.621 9.378 5.5 8 5.5C6.622 5.5 5.5 6.621 5.5 8ZM12.8316 3.69999C12.8316 3.99436 12.593 4.23299 12.2986 4.23299C12.0043 4.23299 11.7656 3.99436 11.7656 3.69999C11.7656 3.40562 12.0043 3.16699 12.2986 3.16699C12.593 3.16699 12.8316 3.40562 12.8316 3.69999Z" fill="#24232D"/>
<rect x="0.5" y="0.5" width="15" height="15" stroke="#F1AF00"/>
</svg>
