<svg width="132" height="22" viewBox="0 0 132 22" fill="none" xmlns="http://www.w3.org/2000/svg">
<path d="M10.6526 20.338C12.3166 20.338 13.8506 19.948 15.2286 19.168C16.6326 18.362 17.7246 17.296 18.4786 15.97L15.8786 14.488C14.9426 16.282 12.9406 17.426 10.6526 17.426C8.70256 17.426 7.14256 16.802 5.92056 15.58C4.72456 14.358 4.12656 12.798 4.12656 10.9C4.12656 9.002 4.72456 7.442 5.92056 6.22C7.14256 4.998 8.70256 4.374 10.6526 4.374C12.9406 4.374 14.9166 5.518 15.8786 7.312L18.4786 5.804C16.9186 3.126 13.9546 1.462 10.6526 1.462C7.92256 1.462 5.63456 2.372 3.84056 4.192C2.04656 5.986 1.13656 8.222 1.13656 10.9C1.13656 13.578 2.04656 15.814 3.84056 17.634C5.63456 19.428 7.92256 20.338 10.6526 20.338ZM31.0512 8.846C29.9852 7.39 28.4772 6.662 26.5012 6.662C24.7072 6.662 23.1992 7.312 21.9252 8.638C20.6512 9.964 20.0272 11.576 20.0272 13.5C20.0272 15.398 20.6512 17.036 21.9252 18.362C23.1992 19.688 24.7072 20.338 26.5012 20.338C28.4772 20.338 29.9852 19.61 31.0512 18.128V20H33.8592V7H31.0512V8.846ZM24.0052 16.49C23.2252 15.684 22.8352 14.696 22.8352 13.5C22.8352 12.304 23.2252 11.316 24.0052 10.536C24.7852 9.73 25.7732 9.34 26.9432 9.34C28.1132 9.34 29.1012 9.73 29.8812 10.536C30.6612 11.316 31.0512 12.304 31.0512 13.5C31.0512 14.696 30.6612 15.684 29.8812 16.49C29.1012 17.27 28.1132 17.66 26.9432 17.66C25.7732 17.66 24.7852 17.27 24.0052 16.49ZM39.9401 7H37.1321V20H39.9401V13.448C39.9401 12.122 40.3301 11.16 41.1361 10.588C41.9421 9.99 42.8781 9.73 43.9441 9.808V6.766C41.9941 6.766 40.6421 7.572 39.9401 9.184V7ZM53.3769 6.662C51.4009 6.662 49.8929 7.39 48.8269 8.846V1.8H46.0189V20H48.8269V18.128C49.8929 19.61 51.4009 20.338 53.3769 20.338C55.1709 20.338 56.6789 19.688 57.9529 18.362C59.2269 17.036 59.8509 15.398 59.8509 13.5C59.8509 11.576 59.2269 9.964 57.9529 8.638C56.6789 7.312 55.1709 6.662 53.3769 6.662ZM49.9969 16.49C49.2169 15.684 48.8269 14.696 48.8269 13.5C48.8269 12.304 49.2169 11.316 49.9969 10.536C50.7769 9.73 51.7649 9.34 52.9349 9.34C54.1049 9.34 55.0929 9.73 55.8729 10.536C56.6529 11.316 57.0429 12.304 57.0429 13.5C57.0429 14.696 56.6529 15.684 55.8729 16.49C55.0929 17.27 54.1049 17.66 52.9349 17.66C51.7649 17.66 50.7769 17.27 49.9969 16.49ZM68.5318 20.338C70.4558 20.338 72.0678 19.688 73.3938 18.362C74.7198 17.036 75.3958 15.424 75.3958 13.5C75.3958 11.576 74.7198 9.964 73.3938 8.638C72.0678 7.312 70.4558 6.662 68.5318 6.662C66.6338 6.662 64.9958 7.312 63.6698 8.638C62.3438 9.964 61.6678 11.576 61.6678 13.5C61.6678 15.424 62.3438 17.036 63.6698 18.362C64.9958 19.688 66.6338 20.338 68.5318 20.338ZM65.6458 16.438C64.8658 15.658 64.4758 14.67 64.4758 13.5C64.4758 12.33 64.8658 11.342 65.6458 10.562C66.4258 9.782 67.3878 9.392 68.5318 9.392C69.6758 9.392 70.6378 9.782 71.4178 10.562C72.1978 11.342 72.5878 12.33 72.5878 13.5C72.5878 14.67 72.1978 15.658 71.4178 16.438C70.6378 17.218 69.6758 17.608 68.5318 17.608C67.3878 17.608 66.4258 17.218 65.6458 16.438ZM84.7729 6.662C82.9269 6.662 81.6009 7.338 80.7429 8.664V7H77.9349V20H80.7429V13.032C80.7429 10.51 82.0689 9.288 84.0449 9.288C85.8389 9.288 86.9569 10.354 86.9569 12.304V20H89.7649V12.018C89.7649 8.69 87.7629 6.662 84.7729 6.662ZM103.084 8.846C102.018 7.39 100.51 6.662 98.5344 6.662C96.7404 6.662 95.2324 7.312 93.9584 8.638C92.6844 9.964 92.0604 11.576 92.0604 13.5C92.0604 15.398 92.6844 17.036 93.9584 18.362C95.2324 19.688 96.7404 20.338 98.5344 20.338C100.51 20.338 102.018 19.61 103.084 18.128V20H105.892V7H103.084V8.846ZM96.0384 16.49C95.2584 15.684 94.8684 14.696 94.8684 13.5C94.8684 12.304 95.2584 11.316 96.0384 10.536C96.8184 9.73 97.8064 9.34 98.9764 9.34C100.146 9.34 101.134 9.73 101.914 10.536C102.694 11.316 103.084 12.304 103.084 13.5C103.084 14.696 102.694 15.684 101.914 16.49C101.134 17.27 100.146 17.66 98.9764 17.66C97.8064 17.66 96.8184 17.27 96.0384 16.49ZM111.973 7H109.165V20H111.973V13.448C111.973 12.122 112.363 11.16 113.169 10.588C113.975 9.99 114.911 9.73 115.977 9.808V6.766C114.027 6.766 112.675 7.572 111.973 9.184V7ZM127.739 8.846C126.673 7.39 125.165 6.662 123.189 6.662C121.395 6.662 119.887 7.312 118.613 8.638C117.339 9.964 116.715 11.576 116.715 13.5C116.715 15.398 117.339 17.036 118.613 18.362C119.887 19.688 121.395 20.338 123.189 20.338C125.165 20.338 126.673 19.61 127.739 18.128V20H130.547V7H127.739V8.846ZM120.693 16.49C119.913 15.684 119.523 14.696 119.523 13.5C119.523 12.304 119.913 11.316 120.693 10.536C121.473 9.73 122.461 9.34 123.631 9.34C124.801 9.34 125.789 9.73 126.569 10.536C127.349 11.316 127.739 12.304 127.739 13.5C127.739 14.696 127.349 15.684 126.569 16.49C125.789 17.27 124.801 17.66 123.631 17.66C122.461 17.66 121.473 17.27 120.693 16.49Z" fill="#24232D"/>
</svg>
